<?xml version="1.0" standalone="no"?>
<!DOCTYPE svg PUBLIC "-//W3C//DTD SVG 20010904//EN"
 "http://www.w3.org/TR/2001/REC-SVG-20010904/DTD/svg10.dtd">
<svg version="1.0" xmlns="http://www.w3.org/2000/svg"
 width="64.000000pt" height="64.000000pt" viewBox="0 0 64.000000 64.000000"
 preserveAspectRatio="xMidYMid meet">

<g transform="translate(0.000000,64.000000) scale(0.100000,-0.100000)"
fill="currentColor" stroke="none">
<path d="M173 619 c-114 -56 -115 -222 -2 -279 108 -56 231 19 231 140 0 64
-29 112 -86 139 -54 26 -90 26 -143 0z"/>
<path d="M517 483 c-4 -3 -7 -24 -7 -45 0 -38 0 -38 -39 -38 -37 0 -68 -19
-54 -33 3 -4 26 -7 50 -7 l43 0 0 -43 c0 -24 3 -47 7 -50 14 -14 33 17 33 54
l0 39 45 0 c32 0 45 4 45 14 0 17 -22 26 -61 26 -25 0 -29 4 -29 29 0 49 -15
73 -33 54z"/>
<path d="M180 281 c-99 -32 -163 -107 -177 -206 -10 -76 -12 -75 241 -75 159
0 225 3 234 12 30 30 -1 143 -56 201 -15 16 -45 38 -66 49 -43 22 -136 32
-176 19z"/>
</g>
</svg>
